<?xml version="1.0" encoding="utf-8" standalone="no"?>
<!DOCTYPE svg PUBLIC "-//W3C//DTD SVG 1.1//EN"
  "http://www.w3.org/Graphics/SVG/1.1/DTD/svg11.dtd">
<svg xmlns:xlink="http://www.w3.org/1999/xlink" width="1008pt" height="1008pt" viewBox="0 0 1008 1008" xmlns="http://www.w3.org/2000/svg" version="1.1">
 <metadata>
  <rdf:RDF xmlns:dc="http://purl.org/dc/elements/1.1/" xmlns:cc="http://creativecommons.org/ns#" xmlns:rdf="http://www.w3.org/1999/02/22-rdf-syntax-ns#">
   <cc:Work>
    <dc:type rdf:resource="http://purl.org/dc/dcmitype/StillImage"/>
    <dc:date>2022-05-30T10:45:53.222838</dc:date>
    <dc:format>image/svg+xml</dc:format>
    <dc:creator>
     <cc:Agent>
      <dc:title>Matplotlib v3.5.2, https://matplotlib.org/</dc:title>
     </cc:Agent>
    </dc:creator>
   </cc:Work>
  </rdf:RDF>
 </metadata>
 <defs>
  <style type="text/css">*{stroke-linejoin: round; stroke-linecap: butt}</style>
 </defs>
 <g id="figure_1">
  <g id="patch_1">
   <path d="M 0 1008 
L 1008 1008 
L 1008 0 
L 0 0 
z
" style="fill: #202020"/>
  </g>
  <g id="axes_1">
   <g id="patch_2">
    <path d="M 458.813895 494.854695 
C 458.950382 494.854695 459.081298 494.800818 459.17781 494.704929 
C 459.274321 494.60904 459.328549 494.478969 459.328549 494.343362 
C 459.328549 494.207754 459.274321 494.077683 459.17781 493.981794 
C 459.081298 493.885905 458.950382 493.832028 458.813895 493.832028 
C 458.677407 493.832028 458.546491 493.885905 458.449979 493.981794 
C 458.353468 494.077683 458.29924 494.207754 458.29924 494.343362 
C 458.29924 494.478969 458.353468 494.60904 458.449979 494.704929 
C 458.546491 494.800818 458.677407 494.854695 458.813895 494.854695 
z
" clip-path="url(#p70685826d6)" style="fill: #00cc33; opacity: 0.5; stroke: #00cc33; stroke-width: 2; stroke-linejoin: miter"/>
   </g>
   <g id="patch_3">
    <path d="M 456.961465 449.271869 
C 460.090955 449.271869 463.09269 448.036531 465.305574 445.837924 
C 467.518458 443.639317 468.761818 440.656948 468.761818 437.547648 
C 468.761818 434.438348 467.518458 431.455978 465.305574 429.257371 
C 463.09269 427.058764 460.090955 425.823426 456.961465 425.823426 
C 453.831974 425.823426 450.830239 427.058764 448.617355 429.257371 
C 446.404471 431.455978 445.161111 434.438348 445.161111 437.547648 
C 445.161111 440.656948 446.404471 443.639317 448.617355 445.837924 
C 450.830239 448.036531 453.831974 449.271869 456.961465 449.271869 
z
" clip-path="url(#p70685826d6)" style="fill: #00cc33; stroke: #00cc33; stroke-width: 2; stroke-linejoin: miter"/>
   </g>
   <g id="patch_4">
    <path d="M 292.449185 657.877787 
C 332.177741 657.877787 370.284466 642.195299 398.376797 614.284209 
C 426.469129 586.373118 442.253451 548.512243 442.253451 509.04 
C 442.253451 469.567757 426.469129 431.706882 398.376797 403.795791 
C 370.284466 375.884701 332.177741 360.202213 292.449185 360.202213 
C 252.720629 360.202213 214.613903 375.884701 186.521572 403.795791 
C 158.429241 431.706882 142.644918 469.567757 142.644918 509.04 
C 142.644918 548.512243 158.429241 586.373118 186.521572 614.284209 
C 214.613903 642.195299 252.720629 657.877787 292.449185 657.877787 
z
" clip-path="url(#p70685826d6)" style="fill: #0ba1ff; opacity: 0.5; stroke: #0ba1ff; stroke-width: 2; stroke-linejoin: miter"/>
   </g>
   <g id="patch_5">
    <path d="M 683.049185 709.474213 
C 736.550127 709.474213 787.867011 688.3552 825.69789 650.768391 
C 863.528769 613.181582 884.784918 562.195775 884.784918 509.04 
C 884.784918 455.884225 863.528769 404.898418 825.69789 367.311609 
C 787.867011 329.7248 736.550127 308.605787 683.049185 308.605787 
C 629.548243 308.605787 578.231358 329.7248 540.40048 367.311609 
C 502.569601 404.898418 481.313451 455.884225 481.313451 509.04 
C 481.313451 562.195775 502.569601 613.181582 540.40048 650.768391 
C 578.231358 688.3552 629.548243 709.474213 683.049185 709.474213 
z
" clip-path="url(#p70685826d6)" style="fill: #0ba1ff; stroke: #0ba1ff; stroke-width: 2; stroke-linejoin: miter"/>
   </g>
   <g id="text_1">
    <!-- Onchain retired -->
    <g style="fill: #ffffff" transform="translate(405.871395 494.343362)scale(0.12 -0.12)">
     <defs>
      <path id="DejaVuSans-Bold-4f" d="M 2719 3878 
Q 2169 3878 1866 3472 
Q 1563 3066 1563 2328 
Q 1563 1594 1866 1187 
Q 2169 781 2719 781 
Q 3272 781 3575 1187 
Q 3878 1594 3878 2328 
Q 3878 3066 3575 3472 
Q 3272 3878 2719 3878 
z
M 2719 4750 
Q 3844 4750 4481 4106 
Q 5119 3463 5119 2328 
Q 5119 1197 4481 553 
Q 3844 -91 2719 -91 
Q 1597 -91 958 553 
Q 319 1197 319 2328 
Q 319 3463 958 4106 
Q 1597 4750 2719 4750 
z
" transform="scale(0.015625)"/>
      <path id="DejaVuSans-Bold-6e" d="M 4056 2131 
L 4056 0 
L 2931 0 
L 2931 347 
L 2931 1631 
Q 2931 2084 2911 2256 
Q 2891 2428 2841 2509 
Q 2775 2619 2662 2680 
Q 2550 2741 2406 2741 
Q 2056 2741 1856 2470 
Q 1656 2200 1656 1722 
L 1656 0 
L 538 0 
L 538 3500 
L 1656 3500 
L 1656 2988 
Q 1909 3294 2193 3439 
Q 2478 3584 2822 3584 
Q 3428 3584 3742 3212 
Q 4056 2841 4056 2131 
z
" transform="scale(0.015625)"/>
      <path id="DejaVuSans-Bold-63" d="M 3366 3391 
L 3366 2478 
Q 3138 2634 2908 2709 
Q 2678 2784 2431 2784 
Q 1963 2784 1702 2511 
Q 1441 2238 1441 1747 
Q 1441 1256 1702 982 
Q 1963 709 2431 709 
Q 2694 709 2930 787 
Q 3166 866 3366 1019 
L 3366 103 
Q 3103 6 2833 -42 
Q 2563 -91 2291 -91 
Q 1344 -91 809 395 
Q 275 881 275 1747 
Q 275 2613 809 3098 
Q 1344 3584 2291 3584 
Q 2566 3584 2833 3536 
Q 3100 3488 3366 3391 
z
" transform="scale(0.015625)"/>
      <path id="DejaVuSans-Bold-68" d="M 4056 2131 
L 4056 0 
L 2931 0 
L 2931 347 
L 2931 1625 
Q 2931 2084 2911 2256 
Q 2891 2428 2841 2509 
Q 2775 2619 2662 2680 
Q 2550 2741 2406 2741 
Q 2056 2741 1856 2470 
Q 1656 2200 1656 1722 
L 1656 0 
L 538 0 
L 538 4863 
L 1656 4863 
L 1656 2988 
Q 1909 3294 2193 3439 
Q 2478 3584 2822 3584 
Q 3428 3584 3742 3212 
Q 4056 2841 4056 2131 
z
" transform="scale(0.015625)"/>
      <path id="DejaVuSans-Bold-61" d="M 2106 1575 
Q 1756 1575 1579 1456 
Q 1403 1338 1403 1106 
Q 1403 894 1545 773 
Q 1688 653 1941 653 
Q 2256 653 2472 879 
Q 2688 1106 2688 1447 
L 2688 1575 
L 2106 1575 
z
M 3816 1997 
L 3816 0 
L 2688 0 
L 2688 519 
Q 2463 200 2181 54 
Q 1900 -91 1497 -91 
Q 953 -91 614 226 
Q 275 544 275 1050 
Q 275 1666 698 1953 
Q 1122 2241 2028 2241 
L 2688 2241 
L 2688 2328 
Q 2688 2594 2478 2717 
Q 2269 2841 1825 2841 
Q 1466 2841 1156 2769 
Q 847 2697 581 2553 
L 581 3406 
Q 941 3494 1303 3539 
Q 1666 3584 2028 3584 
Q 2975 3584 3395 3211 
Q 3816 2838 3816 1997 
z
" transform="scale(0.015625)"/>
      <path id="DejaVuSans-Bold-69" d="M 538 3500 
L 1656 3500 
L 1656 0 
L 538 0 
L 538 3500 
z
M 538 4863 
L 1656 4863 
L 1656 3950 
L 538 3950 
L 538 4863 
z
" transform="scale(0.015625)"/>
      <path id="DejaVuSans-Bold-20" transform="scale(0.015625)"/>
      <path id="DejaVuSans-Bold-72" d="M 3138 2547 
Q 2991 2616 2845 2648 
Q 2700 2681 2553 2681 
Q 2122 2681 1889 2404 
Q 1656 2128 1656 1613 
L 1656 0 
L 538 0 
L 538 3500 
L 1656 3500 
L 1656 2925 
Q 1872 3269 2151 3426 
Q 2431 3584 2822 3584 
Q 2878 3584 2943 3579 
Q 3009 3575 3134 3559 
L 3138 2547 
z
" transform="scale(0.015625)"/>
      <path id="DejaVuSans-Bold-65" d="M 4031 1759 
L 4031 1441 
L 1416 1441 
Q 1456 1047 1700 850 
Q 1944 653 2381 653 
Q 2734 653 3104 758 
Q 3475 863 3866 1075 
L 3866 213 
Q 3469 63 3072 -14 
Q 2675 -91 2278 -91 
Q 1328 -91 801 392 
Q 275 875 275 1747 
Q 275 2603 792 3093 
Q 1309 3584 2216 3584 
Q 3041 3584 3536 3087 
Q 4031 2591 4031 1759 
z
M 2881 2131 
Q 2881 2450 2695 2645 
Q 2509 2841 2209 2841 
Q 1884 2841 1681 2658 
Q 1478 2475 1428 2131 
L 2881 2131 
z
" transform="scale(0.015625)"/>
      <path id="DejaVuSans-Bold-74" d="M 1759 4494 
L 1759 3500 
L 2913 3500 
L 2913 2700 
L 1759 2700 
L 1759 1216 
Q 1759 972 1856 886 
Q 1953 800 2241 800 
L 2816 800 
L 2816 0 
L 1856 0 
Q 1194 0 917 276 
Q 641 553 641 1216 
L 641 2700 
L 84 2700 
L 84 3500 
L 641 3500 
L 641 4494 
L 1759 4494 
z
" transform="scale(0.015625)"/>
      <path id="DejaVuSans-Bold-64" d="M 2919 2988 
L 2919 4863 
L 4044 4863 
L 4044 0 
L 2919 0 
L 2919 506 
Q 2688 197 2409 53 
Q 2131 -91 1766 -91 
Q 1119 -91 703 423 
Q 288 938 288 1747 
Q 288 2556 703 3070 
Q 1119 3584 1766 3584 
Q 2128 3584 2408 3439 
Q 2688 3294 2919 2988 
z
M 2181 722 
Q 2541 722 2730 984 
Q 2919 1247 2919 1747 
Q 2919 2247 2730 2509 
Q 2541 2772 2181 2772 
Q 1825 2772 1636 2509 
Q 1447 2247 1447 1747 
Q 1447 1247 1636 984 
Q 1825 722 2181 722 
z
" transform="scale(0.015625)"/>
     </defs>
     <use xlink:href="#DejaVuSans-Bold-4f"/>
     <use xlink:href="#DejaVuSans-Bold-6e" x="85.009766"/>
     <use xlink:href="#DejaVuSans-Bold-63" x="156.201172"/>
     <use xlink:href="#DejaVuSans-Bold-68" x="215.478516"/>
     <use xlink:href="#DejaVuSans-Bold-61" x="286.669922"/>
     <use xlink:href="#DejaVuSans-Bold-69" x="354.150391"/>
     <use xlink:href="#DejaVuSans-Bold-6e" x="388.427734"/>
     <use xlink:href="#DejaVuSans-Bold-20" x="459.619141"/>
     <use xlink:href="#DejaVuSans-Bold-72" x="494.433594"/>
     <use xlink:href="#DejaVuSans-Bold-65" x="543.75"/>
     <use xlink:href="#DejaVuSans-Bold-74" x="611.572266"/>
     <use xlink:href="#DejaVuSans-Bold-69" x="659.375"/>
     <use xlink:href="#DejaVuSans-Bold-72" x="693.652344"/>
     <use xlink:href="#DejaVuSans-Bold-65" x="742.96875"/>
     <use xlink:href="#DejaVuSans-Bold-64" x="810.791016"/>
    </g>
   </g>
   <g id="text_2">
    <!-- 3679.0 -->
    <g style="fill: #ffffff" transform="translate(437.81952 494.428584)scale(0.12 -0.12)">
     <defs>
      <path id="DejaVuSans-33" d="M 2597 2516 
Q 3050 2419 3304 2112 
Q 3559 1806 3559 1356 
Q 3559 666 3084 287 
Q 2609 -91 1734 -91 
Q 1441 -91 1130 -33 
Q 819 25 488 141 
L 488 750 
Q 750 597 1062 519 
Q 1375 441 1716 441 
Q 2309 441 2620 675 
Q 2931 909 2931 1356 
Q 2931 1769 2642 2001 
Q 2353 2234 1838 2234 
L 1294 2234 
L 1294 2753 
L 1863 2753 
Q 2328 2753 2575 2939 
Q 2822 3125 2822 3475 
Q 2822 3834 2567 4026 
Q 2313 4219 1838 4219 
Q 1578 4219 1281 4162 
Q 984 4106 628 3988 
L 628 4550 
Q 988 4650 1302 4700 
Q 1616 4750 1894 4750 
Q 2613 4750 3031 4423 
Q 3450 4097 3450 3541 
Q 3450 3153 3228 2886 
Q 3006 2619 2597 2516 
z
" transform="scale(0.015625)"/>
      <path id="DejaVuSans-36" d="M 2113 2584 
Q 1688 2584 1439 2293 
Q 1191 2003 1191 1497 
Q 1191 994 1439 701 
Q 1688 409 2113 409 
Q 2538 409 2786 701 
Q 3034 994 3034 1497 
Q 3034 2003 2786 2293 
Q 2538 2584 2113 2584 
z
M 3366 4563 
L 3366 3988 
Q 3128 4100 2886 4159 
Q 2644 4219 2406 4219 
Q 1781 4219 1451 3797 
Q 1122 3375 1075 2522 
Q 1259 2794 1537 2939 
Q 1816 3084 2150 3084 
Q 2853 3084 3261 2657 
Q 3669 2231 3669 1497 
Q 3669 778 3244 343 
Q 2819 -91 2113 -91 
Q 1303 -91 875 529 
Q 447 1150 447 2328 
Q 447 3434 972 4092 
Q 1497 4750 2381 4750 
Q 2619 4750 2861 4703 
Q 3103 4656 3366 4563 
z
" transform="scale(0.015625)"/>
      <path id="DejaVuSans-37" d="M 525 4666 
L 3525 4666 
L 3525 4397 
L 1831 0 
L 1172 0 
L 2766 4134 
L 525 4134 
L 525 4666 
z
" transform="scale(0.015625)"/>
      <path id="DejaVuSans-39" d="M 703 97 
L 703 672 
Q 941 559 1184 500 
Q 1428 441 1663 441 
Q 2288 441 2617 861 
Q 2947 1281 2994 2138 
Q 2813 1869 2534 1725 
Q 2256 1581 1919 1581 
Q 1219 1581 811 2004 
Q 403 2428 403 3163 
Q 403 3881 828 4315 
Q 1253 4750 1959 4750 
Q 2769 4750 3195 4129 
Q 3622 3509 3622 2328 
Q 3622 1225 3098 567 
Q 2575 -91 1691 -91 
Q 1453 -91 1209 -44 
Q 966 3 703 97 
z
M 1959 2075 
Q 2384 2075 2632 2365 
Q 2881 2656 2881 3163 
Q 2881 3666 2632 3958 
Q 2384 4250 1959 4250 
Q 1534 4250 1286 3958 
Q 1038 3666 1038 3163 
Q 1038 2656 1286 2365 
Q 1534 2075 1959 2075 
z
" transform="scale(0.015625)"/>
      <path id="DejaVuSans-2e" d="M 684 794 
L 1344 794 
L 1344 0 
L 684 0 
L 684 794 
z
" transform="scale(0.015625)"/>
      <path id="DejaVuSans-30" d="M 2034 4250 
Q 1547 4250 1301 3770 
Q 1056 3291 1056 2328 
Q 1056 1369 1301 889 
Q 1547 409 2034 409 
Q 2525 409 2770 889 
Q 3016 1369 3016 2328 
Q 3016 3291 2770 3770 
Q 2525 4250 2034 4250 
z
M 2034 4750 
Q 2819 4750 3233 4129 
Q 3647 3509 3647 2328 
Q 3647 1150 3233 529 
Q 2819 -91 2034 -91 
Q 1250 -91 836 529 
Q 422 1150 422 2328 
Q 422 3509 836 4129 
Q 1250 4750 2034 4750 
z
" transform="scale(0.015625)"/>
     </defs>
     <use xlink:href="#DejaVuSans-33"/>
     <use xlink:href="#DejaVuSans-36" x="63.623047"/>
     <use xlink:href="#DejaVuSans-37" x="127.246094"/>
     <use xlink:href="#DejaVuSans-39" x="190.869141"/>
     <use xlink:href="#DejaVuSans-2e" x="254.492188"/>
     <use xlink:href="#DejaVuSans-30" x="286.279297"/>
    </g>
   </g>
   <g id="text_3">
    <!-- Onchain -->
    <g style="fill: #ffffff" transform="translate(420.191465 437.547648)scale(0.16 -0.16)">
     <use xlink:href="#DejaVuSans-Bold-4f"/>
     <use xlink:href="#DejaVuSans-Bold-6e" x="85.009766"/>
     <use xlink:href="#DejaVuSans-Bold-63" x="156.201172"/>
     <use xlink:href="#DejaVuSans-Bold-68" x="215.478516"/>
     <use xlink:href="#DejaVuSans-Bold-61" x="286.669922"/>
     <use xlink:href="#DejaVuSans-Bold-69" x="354.150391"/>
     <use xlink:href="#DejaVuSans-Bold-6e" x="388.427734"/>
    </g>
   </g>
   <g id="text_4">
    <!-- 1934145.0 -->
    <g style="fill: #ffffff" transform="translate(413.698965 439.501685)scale(0.16 -0.16)">
     <defs>
      <path id="DejaVuSans-31" d="M 794 531 
L 1825 531 
L 1825 4091 
L 703 3866 
L 703 4441 
L 1819 4666 
L 2450 4666 
L 2450 531 
L 3481 531 
L 3481 0 
L 794 0 
L 794 531 
z
" transform="scale(0.015625)"/>
      <path id="DejaVuSans-34" d="M 2419 4116 
L 825 1625 
L 2419 1625 
L 2419 4116 
z
M 2253 4666 
L 3047 4666 
L 3047 1625 
L 3713 1625 
L 3713 1100 
L 3047 1100 
L 3047 0 
L 2419 0 
L 2419 1100 
L 313 1100 
L 313 1709 
L 2253 4666 
z
" transform="scale(0.015625)"/>
      <path id="DejaVuSans-35" d="M 691 4666 
L 3169 4666 
L 3169 4134 
L 1269 4134 
L 1269 2991 
Q 1406 3038 1543 3061 
Q 1681 3084 1819 3084 
Q 2600 3084 3056 2656 
Q 3513 2228 3513 1497 
Q 3513 744 3044 326 
Q 2575 -91 1722 -91 
Q 1428 -91 1123 -41 
Q 819 9 494 109 
L 494 744 
Q 775 591 1075 516 
Q 1375 441 1709 441 
Q 2250 441 2565 725 
Q 2881 1009 2881 1497 
Q 2881 1984 2565 2268 
Q 2250 2553 1709 2553 
Q 1456 2553 1204 2497 
Q 953 2441 691 2322 
L 691 4666 
z
" transform="scale(0.015625)"/>
     </defs>
     <use xlink:href="#DejaVuSans-31"/>
     <use xlink:href="#DejaVuSans-39" x="63.623047"/>
     <use xlink:href="#DejaVuSans-33" x="127.246094"/>
     <use xlink:href="#DejaVuSans-34" x="190.869141"/>
     <use xlink:href="#DejaVuSans-31" x="254.492188"/>
     <use xlink:href="#DejaVuSans-34" x="318.115234"/>
     <use xlink:href="#DejaVuSans-35" x="381.738281"/>
     <use xlink:href="#DejaVuSans-2e" x="445.361328"/>
     <use xlink:href="#DejaVuSans-30" x="477.148438"/>
    </g>
   </g>
   <g id="text_5">
    <!-- Offchain retired -->
    <g style="fill: #ffffff" transform="translate(211.61231 509.04)scale(0.18 -0.18)">
     <defs>
      <path id="DejaVuSans-Bold-66" d="M 2841 4863 
L 2841 4128 
L 2222 4128 
Q 1984 4128 1890 4042 
Q 1797 3956 1797 3744 
L 1797 3500 
L 2753 3500 
L 2753 2700 
L 1797 2700 
L 1797 0 
L 678 0 
L 678 2700 
L 122 2700 
L 122 3500 
L 678 3500 
L 678 3744 
Q 678 4316 997 4589 
Q 1316 4863 1984 4863 
L 2841 4863 
z
" transform="scale(0.015625)"/>
     </defs>
     <use xlink:href="#DejaVuSans-Bold-4f"/>
     <use xlink:href="#DejaVuSans-Bold-66" x="85.009766"/>
     <use xlink:href="#DejaVuSans-Bold-66" x="128.515625"/>
     <use xlink:href="#DejaVuSans-Bold-63" x="172.021484"/>
     <use xlink:href="#DejaVuSans-Bold-68" x="231.298828"/>
     <use xlink:href="#DejaVuSans-Bold-61" x="302.490234"/>
     <use xlink:href="#DejaVuSans-Bold-69" x="369.970703"/>
     <use xlink:href="#DejaVuSans-Bold-6e" x="404.248047"/>
     <use xlink:href="#DejaVuSans-Bold-20" x="475.439453"/>
     <use xlink:href="#DejaVuSans-Bold-72" x="510.253906"/>
     <use xlink:href="#DejaVuSans-Bold-65" x="559.570312"/>
     <use xlink:href="#DejaVuSans-Bold-74" x="627.392578"/>
     <use xlink:href="#DejaVuSans-Bold-69" x="675.195312"/>
     <use xlink:href="#DejaVuSans-Bold-72" x="709.472656"/>
     <use xlink:href="#DejaVuSans-Bold-65" x="758.789062"/>
     <use xlink:href="#DejaVuSans-Bold-64" x="826.611328"/>
    </g>
   </g>
   <g id="text_6">
    <!-- 311707593.0 -->
    <g style="fill: #ffffff" transform="translate(232.326372 533.846298)scale(0.18 -0.18)">
     <use xlink:href="#DejaVuSans-33"/>
     <use xlink:href="#DejaVuSans-31" x="63.623047"/>
     <use xlink:href="#DejaVuSans-31" x="127.246094"/>
     <use xlink:href="#DejaVuSans-37" x="190.869141"/>
     <use xlink:href="#DejaVuSans-30" x="254.492188"/>
     <use xlink:href="#DejaVuSans-37" x="318.115234"/>
     <use xlink:href="#DejaVuSans-35" x="381.738281"/>
     <use xlink:href="#DejaVuSans-39" x="445.361328"/>
     <use xlink:href="#DejaVuSans-33" x="508.984375"/>
     <use xlink:href="#DejaVuSans-2e" x="572.607422"/>
     <use xlink:href="#DejaVuSans-30" x="604.394531"/>
    </g>
   </g>
   <g id="text_7">
    <!-- Offchain -->
    <g style="fill: #ffffff" transform="translate(635.505435 509.04)scale(0.2 -0.2)">
     <use xlink:href="#DejaVuSans-Bold-4f"/>
     <use xlink:href="#DejaVuSans-Bold-66" x="85.009766"/>
     <use xlink:href="#DejaVuSans-Bold-66" x="128.515625"/>
     <use xlink:href="#DejaVuSans-Bold-63" x="172.021484"/>
     <use xlink:href="#DejaVuSans-Bold-68" x="231.298828"/>
     <use xlink:href="#DejaVuSans-Bold-61" x="302.490234"/>
     <use xlink:href="#DejaVuSans-Bold-69" x="369.970703"/>
     <use xlink:href="#DejaVuSans-Bold-6e" x="404.248047"/>
    </g>
   </g>
   <g id="text_8">
    <!-- 565281382.0 -->
    <g style="fill: #ffffff" transform="translate(616.24606 542.445702)scale(0.2 -0.2)">
     <defs>
      <path id="DejaVuSans-32" d="M 1228 531 
L 3431 531 
L 3431 0 
L 469 0 
L 469 531 
Q 828 903 1448 1529 
Q 2069 2156 2228 2338 
Q 2531 2678 2651 2914 
Q 2772 3150 2772 3378 
Q 2772 3750 2511 3984 
Q 2250 4219 1831 4219 
Q 1534 4219 1204 4116 
Q 875 4013 500 3803 
L 500 4441 
Q 881 4594 1212 4672 
Q 1544 4750 1819 4750 
Q 2544 4750 2975 4387 
Q 3406 4025 3406 3419 
Q 3406 3131 3298 2873 
Q 3191 2616 2906 2266 
Q 2828 2175 2409 1742 
Q 1991 1309 1228 531 
z
" transform="scale(0.015625)"/>
      <path id="DejaVuSans-38" d="M 2034 2216 
Q 1584 2216 1326 1975 
Q 1069 1734 1069 1313 
Q 1069 891 1326 650 
Q 1584 409 2034 409 
Q 2484 409 2743 651 
Q 3003 894 3003 1313 
Q 3003 1734 2745 1975 
Q 2488 2216 2034 2216 
z
M 1403 2484 
Q 997 2584 770 2862 
Q 544 3141 544 3541 
Q 544 4100 942 4425 
Q 1341 4750 2034 4750 
Q 2731 4750 3128 4425 
Q 3525 4100 3525 3541 
Q 3525 3141 3298 2862 
Q 3072 2584 2669 2484 
Q 3125 2378 3379 2068 
Q 3634 1759 3634 1313 
Q 3634 634 3220 271 
Q 2806 -91 2034 -91 
Q 1263 -91 848 271 
Q 434 634 434 1313 
Q 434 1759 690 2068 
Q 947 2378 1403 2484 
z
M 1172 3481 
Q 1172 3119 1398 2916 
Q 1625 2713 2034 2713 
Q 2441 2713 2670 2916 
Q 2900 3119 2900 3481 
Q 2900 3844 2670 4047 
Q 2441 4250 2034 4250 
Q 1625 4250 1398 4047 
Q 1172 3844 1172 3481 
z
" transform="scale(0.015625)"/>
     </defs>
     <use xlink:href="#DejaVuSans-35"/>
     <use xlink:href="#DejaVuSans-36" x="63.623047"/>
     <use xlink:href="#DejaVuSans-35" x="127.246094"/>
     <use xlink:href="#DejaVuSans-32" x="190.869141"/>
     <use xlink:href="#DejaVuSans-38" x="254.492188"/>
     <use xlink:href="#DejaVuSans-31" x="318.115234"/>
     <use xlink:href="#DejaVuSans-33" x="381.738281"/>
     <use xlink:href="#DejaVuSans-38" x="445.361328"/>
     <use xlink:href="#DejaVuSans-32" x="508.984375"/>
     <use xlink:href="#DejaVuSans-2e" x="572.607422"/>
     <use xlink:href="#DejaVuSans-30" x="604.394531"/>
    </g>
   </g>
  </g>
 </g>
 <defs>
  <clipPath id="p70685826d6">
   <rect x="126" y="120.96" width="781.2" height="776.16"/>
  </clipPath>
 </defs>
</svg>
